<svg aria-roledescription="er" role="graphics-document document" viewBox="0 0 729.9658203125 474" style="max-width: 729.966px; background-color: rgb(255, 255, 255);" xmlns:xlink="http://www.w3.org/1999/xlink" xmlns="http://www.w3.org/2000/svg" width="100%" id="mermaid-1692407443689"><style>#mermaid-1692407443689{font-family:"trebuchet ms",verdana,arial,sans-serif;font-size:16px;fill:#333;}#mermaid-1692407443689 .error-icon{fill:#552222;}#mermaid-1692407443689 .error-text{fill:#552222;stroke:#552222;}#mermaid-1692407443689 .edge-thickness-normal{stroke-width:2px;}#mermaid-1692407443689 .edge-thickness-thick{stroke-width:3.5px;}#mermaid-1692407443689 .edge-pattern-solid{stroke-dasharray:0;}#mermaid-1692407443689 .edge-pattern-dashed{stroke-dasharray:3;}#mermaid-1692407443689 .edge-pattern-dotted{stroke-dasharray:2;}#mermaid-1692407443689 .marker{fill:#333333;stroke:#333333;}#mermaid-1692407443689 .marker.cross{stroke:#333333;}#mermaid-1692407443689 svg{font-family:"trebuchet ms",verdana,arial,sans-serif;font-size:16px;}#mermaid-1692407443689 .entityBox{fill:#ECECFF;stroke:#9370DB;}#mermaid-1692407443689 .attributeBoxOdd{fill:#ffffff;stroke:#9370DB;}#mermaid-1692407443689 .attributeBoxEven{fill:#f2f2f2;stroke:#9370DB;}#mermaid-1692407443689 .relationshipLabelBox{fill:hsl(80, 100%, 96.2745098039%);opacity:0.7;background-color:hsl(80, 100%, 96.2745098039%);}#mermaid-1692407443689 .relationshipLabelBox rect{opacity:0.5;}#mermaid-1692407443689 .relationshipLine{stroke:#333333;}#mermaid-1692407443689 .entityTitleText{text-anchor:middle;font-size:18px;fill:#333;}#mermaid-1692407443689 :root{--mermaid-font-family:"trebuchet ms",verdana,arial,sans-serif;}</style><g/><defs><marker orient="auto" markerHeight="18" markerWidth="18" refY="9" refX="0" id="ONLY_ONE_START"><path d="M9,0 L9,18 M15,0 L15,18" fill="none" stroke="gray"/></marker></defs><defs><marker orient="auto" markerHeight="18" markerWidth="18" refY="9" refX="18" id="ONLY_ONE_END"><path d="M3,0 L3,18 M9,0 L9,18" fill="none" stroke="gray"/></marker></defs><defs><marker orient="auto" markerHeight="18" markerWidth="30" refY="9" refX="0" id="ZERO_OR_ONE_START"><circle r="6" cy="9" cx="21" fill="white" stroke="gray"/><path d="M9,0 L9,18" fill="none" stroke="gray"/></marker></defs><defs><marker orient="auto" markerHeight="18" markerWidth="30" refY="9" refX="30" id="ZERO_OR_ONE_END"><circle r="6" cy="9" cx="9" fill="white" stroke="gray"/><path d="M21,0 L21,18" fill="none" stroke="gray"/></marker></defs><defs><marker orient="auto" markerHeight="36" markerWidth="45" refY="18" refX="18" id="ONE_OR_MORE_START"><path d="M0,18 Q 18,0 36,18 Q 18,36 0,18 M42,9 L42,27" fill="none" stroke="gray"/></marker></defs><defs><marker orient="auto" markerHeight="36" markerWidth="45" refY="18" refX="27" id="ONE_OR_MORE_END"><path d="M3,9 L3,27 M9,18 Q27,0 45,18 Q27,36 9,18" fill="none" stroke="gray"/></marker></defs><defs><marker orient="auto" markerHeight="36" markerWidth="57" refY="18" refX="18" id="ZERO_OR_MORE_START"><circle r="6" cy="18" cx="48" fill="white" stroke="gray"/><path d="M0,18 Q18,0 36,18 Q18,36 0,18" fill="none" stroke="gray"/></marker></defs><defs><marker orient="auto" markerHeight="36" markerWidth="57" refY="18" refX="39" id="ZERO_OR_MORE_END"><circle r="6" cy="18" cx="9" fill="white" stroke="gray"/><path d="M21,18 Q39,0 57,18 Q39,36 21,18" fill="none" stroke="gray"/></marker></defs><path style="stroke: gray; fill: none;" marker-start="url(#ONLY_ONE_START)" marker-end="url(#ZERO_OR_MORE_END)" d="M97.99815368652344,176L97.99815368652344,184.33333333333334C97.99815368652344,192.66666666666666,97.99815368652344,209.33333333333334,100.99575560498867,226C103.9933575234539,242.66666666666666,109.98856136038434,259.3333333333333,112.98616327884957,267.6666666666667L115.9837651973148,276" class="er relationshipLine"/><path style="stroke: gray; fill: none;" marker-start="url(#ZERO_OR_MORE_START)" marker-end="url(#ONLY_ONE_END)" d="M403.63641357421875,165L403.63641357421875,175.16666666666666C403.63641357421875,185.33333333333334,403.63641357421875,205.66666666666666,403.63641357421875,226C403.63641357421875,246.33333333333334,403.63641357421875,266.6666666666667,403.63641357421875,276.8333333333333L403.63641357421875,287" class="er relationshipLine"/><path style="stroke: gray; fill: none;" marker-start="url(#ONLY_ONE_START)" marker-end="url(#ONLY_ONE_END)" d="M335.16890716552734,147.2851405980896L316.94363657633465,160.40428383174134C298.7183659871419,173.52342706539307,262.26782480875653,199.76171353269652,239.37713875530434,221.2141900996816C216.4864527018522,242.66666666666666,207.1556217733333,259.3333333333333,202.49020630907384,267.6666666666667L197.82479084481437,276" class="er relationshipLine"/><path style="stroke: gray; fill: none;" marker-start="url(#ONLY_ONE_START)" marker-end="url(#ZERO_OR_MORE_END)" d="M472.10391998291016,134.60586427214378L500.5944760640462,149.8382202267865C529.0850321451823,165.07057618142917,586.0661443074545,195.5352880907146,614.5567003885905,224.6009773786906C643.0472564697266,253.66666666666666,643.0472564697266,281.3333333333333,643.0472564697266,295.1666666666667L643.0472564697266,309" class="er relationshipLine"/><g transform="translate(20,20 )" id="entity-Propietario-095677df-908d-5c82-9264-2a68eacaa840"><rect height="156" width="155.99630737304688" y="0" x="0" class="er entityBox"/><text style="dominant-baseline: middle; text-anchor: middle; font-size: 12px;" transform="translate(77.99815368652344,12)" y="0" x="0" id="text-entity-Propietario-095677df-908d-5c82-9264-2a68eacaa840" class="er entityLabel">Propietario</text><rect height="22" width="63.70890808105469" y="24" x="0" class="er attributeBoxOdd"/><text style="dominant-baseline: middle; font-size: 10.2px;" transform="translate(5,35)" y="0" x="0" id="text-entity-Propietario-095677df-908d-5c82-9264-2a68eacaa840-attr-1-type" class="er entityLabel">int(11)</text><rect height="22" width="69.59971618652344" y="24" x="63.70890808105469" class="er attributeBoxOdd"/><text style="dominant-baseline: middle; font-size: 10.2px;" transform="translate(68.70890808105469,35)" y="0" x="0" id="text-entity-Propietario-095677df-908d-5c82-9264-2a68eacaa840-attr-1-name" class="er entityLabel">IdPropietario</text><rect height="22" width="22.68768310546875" y="24" x="133.30862426757812" class="er attributeBoxOdd"/><text style="dominant-baseline: middle; font-size: 10.2px;" transform="translate(138.30862426757812,35)" y="0" x="0" id="text-entity-Propietario-095677df-908d-5c82-9264-2a68eacaa840-attr-1-key" class="er entityLabel">PK</text><rect height="22" width="63.70890808105469" y="46" x="0" class="er attributeBoxEven"/><text style="dominant-baseline: middle; font-size: 10.2px;" transform="translate(5,57)" y="0" x="0" id="text-entity-Propietario-095677df-908d-5c82-9264-2a68eacaa840-attr-2-type" class="er entityLabel">varchar(50)</text><rect height="22" width="69.59971618652344" y="46" x="63.70890808105469" class="er attributeBoxEven"/><text style="dominant-baseline: middle; font-size: 10.2px;" transform="translate(68.70890808105469,57)" y="0" x="0" id="text-entity-Propietario-095677df-908d-5c82-9264-2a68eacaa840-attr-2-name" class="er entityLabel">Nombre</text><rect height="22" width="22.68768310546875" y="46" x="133.30862426757812" class="er attributeBoxEven"/><text style="dominant-baseline: middle; font-size: 10.2px;" transform="translate(138.30862426757812,57)" y="0" x="0" id="text-entity-Propietario-095677df-908d-5c82-9264-2a68eacaa840-attr-2-key" class="er entityLabel"/><rect height="22" width="63.70890808105469" y="68" x="0" class="er attributeBoxOdd"/><text style="dominant-baseline: middle; font-size: 10.2px;" transform="translate(5,79)" y="0" x="0" id="text-entity-Propietario-095677df-908d-5c82-9264-2a68eacaa840-attr-3-type" class="er entityLabel">varchar(50)</text><rect height="22" width="69.59971618652344" y="68" x="63.70890808105469" class="er attributeBoxOdd"/><text style="dominant-baseline: middle; font-size: 10.2px;" transform="translate(68.70890808105469,79)" y="0" x="0" id="text-entity-Propietario-095677df-908d-5c82-9264-2a68eacaa840-attr-3-name" class="er entityLabel">Apellido</text><rect height="22" width="22.68768310546875" y="68" x="133.30862426757812" class="er attributeBoxOdd"/><text style="dominant-baseline: middle; font-size: 10.2px;" transform="translate(138.30862426757812,79)" y="0" x="0" id="text-entity-Propietario-095677df-908d-5c82-9264-2a68eacaa840-attr-3-key" class="er entityLabel"/><rect height="22" width="63.70890808105469" y="90" x="0" class="er attributeBoxEven"/><text style="dominant-baseline: middle; font-size: 10.2px;" transform="translate(5,101)" y="0" x="0" id="text-entity-Propietario-095677df-908d-5c82-9264-2a68eacaa840-attr-4-type" class="er entityLabel">varchar(50)</text><rect height="22" width="69.59971618652344" y="90" x="63.70890808105469" class="er attributeBoxEven"/><text style="dominant-baseline: middle; font-size: 10.2px;" transform="translate(68.70890808105469,101)" y="0" x="0" id="text-entity-Propietario-095677df-908d-5c82-9264-2a68eacaa840-attr-4-name" class="er entityLabel">DNI</text><rect height="22" width="22.68768310546875" y="90" x="133.30862426757812" class="er attributeBoxEven"/><text style="dominant-baseline: middle; font-size: 10.2px;" transform="translate(138.30862426757812,101)" y="0" x="0" id="text-entity-Propietario-095677df-908d-5c82-9264-2a68eacaa840-attr-4-key" class="er entityLabel"/><rect height="22" width="63.70890808105469" y="112" x="0" class="er attributeBoxOdd"/><text style="dominant-baseline: middle; font-size: 10.2px;" transform="translate(5,123)" y="0" x="0" id="text-entity-Propietario-095677df-908d-5c82-9264-2a68eacaa840-attr-5-type" class="er entityLabel">varchar(50)</text><rect height="22" width="69.59971618652344" y="112" x="63.70890808105469" class="er attributeBoxOdd"/><text style="dominant-baseline: middle; font-size: 10.2px;" transform="translate(68.70890808105469,123)" y="0" x="0" id="text-entity-Propietario-095677df-908d-5c82-9264-2a68eacaa840-attr-5-name" class="er entityLabel">Telefono</text><rect height="22" width="22.68768310546875" y="112" x="133.30862426757812" class="er attributeBoxOdd"/><text style="dominant-baseline: middle; font-size: 10.2px;" transform="translate(138.30862426757812,123)" y="0" x="0" id="text-entity-Propietario-095677df-908d-5c82-9264-2a68eacaa840-attr-5-key" class="er entityLabel"/><rect height="22" width="63.70890808105469" y="134" x="0" class="er attributeBoxEven"/><text style="dominant-baseline: middle; font-size: 10.2px;" transform="translate(5,145)" y="0" x="0" id="text-entity-Propietario-095677df-908d-5c82-9264-2a68eacaa840-attr-6-type" class="er entityLabel">varchar(50)</text><rect height="22" width="69.59971618652344" y="134" x="63.70890808105469" class="er attributeBoxEven"/><text style="dominant-baseline: middle; font-size: 10.2px;" transform="translate(68.70890808105469,145)" y="0" x="0" id="text-entity-Propietario-095677df-908d-5c82-9264-2a68eacaa840-attr-6-name" class="er entityLabel">Email</text><rect height="22" width="22.68768310546875" y="134" x="133.30862426757812" class="er attributeBoxEven"/><text style="dominant-baseline: middle; font-size: 10.2px;" transform="translate(138.30862426757812,145)" y="0" x="0" id="text-entity-Propietario-095677df-908d-5c82-9264-2a68eacaa840-attr-6-key" class="er entityLabel"/></g><g transform="translate(331.14415740966797,287 )" id="entity-Inquilino-789030f2-d964-5544-af3f-566299f5c789"><rect height="156" width="144.98451232910156" y="0" x="0" class="er entityBox"/><text style="dominant-baseline: middle; text-anchor: middle; font-size: 12px;" transform="translate(72.49225616455078,12)" y="0" x="0" id="text-entity-Inquilino-789030f2-d964-5544-af3f-566299f5c789" class="er entityLabel">Inquilino</text><rect height="22" width="63.70890808105469" y="24" x="0" class="er attributeBoxOdd"/><text style="dominant-baseline: middle; font-size: 10.2px;" transform="translate(5,35)" y="0" x="0" id="text-entity-Inquilino-789030f2-d964-5544-af3f-566299f5c789-attr-1-type" class="er entityLabel">int(11)</text><rect height="22" width="58.587921142578125" y="24" x="63.70890808105469" class="er attributeBoxOdd"/><text style="dominant-baseline: middle; font-size: 10.2px;" transform="translate(68.70890808105469,35)" y="0" x="0" id="text-entity-Inquilino-789030f2-d964-5544-af3f-566299f5c789-attr-1-name" class="er entityLabel">IdInquilino</text><rect height="22" width="22.68768310546875" y="24" x="122.29682922363281" class="er attributeBoxOdd"/><text style="dominant-baseline: middle; font-size: 10.2px;" transform="translate(127.29682922363281,35)" y="0" x="0" id="text-entity-Inquilino-789030f2-d964-5544-af3f-566299f5c789-attr-1-key" class="er entityLabel">PK</text><rect height="22" width="63.70890808105469" y="46" x="0" class="er attributeBoxEven"/><text style="dominant-baseline: middle; font-size: 10.2px;" transform="translate(5,57)" y="0" x="0" id="text-entity-Inquilino-789030f2-d964-5544-af3f-566299f5c789-attr-2-type" class="er entityLabel">varchar(50)</text><rect height="22" width="58.587921142578125" y="46" x="63.70890808105469" class="er attributeBoxEven"/><text style="dominant-baseline: middle; font-size: 10.2px;" transform="translate(68.70890808105469,57)" y="0" x="0" id="text-entity-Inquilino-789030f2-d964-5544-af3f-566299f5c789-attr-2-name" class="er entityLabel">Nombre</text><rect height="22" width="22.68768310546875" y="46" x="122.29682922363281" class="er attributeBoxEven"/><text style="dominant-baseline: middle; font-size: 10.2px;" transform="translate(127.29682922363281,57)" y="0" x="0" id="text-entity-Inquilino-789030f2-d964-5544-af3f-566299f5c789-attr-2-key" class="er entityLabel"/><rect height="22" width="63.70890808105469" y="68" x="0" class="er attributeBoxOdd"/><text style="dominant-baseline: middle; font-size: 10.2px;" transform="translate(5,79)" y="0" x="0" id="text-entity-Inquilino-789030f2-d964-5544-af3f-566299f5c789-attr-3-type" class="er entityLabel">varchar(50)</text><rect height="22" width="58.587921142578125" y="68" x="63.70890808105469" class="er attributeBoxOdd"/><text style="dominant-baseline: middle; font-size: 10.2px;" transform="translate(68.70890808105469,79)" y="0" x="0" id="text-entity-Inquilino-789030f2-d964-5544-af3f-566299f5c789-attr-3-name" class="er entityLabel">Apellido</text><rect height="22" width="22.68768310546875" y="68" x="122.29682922363281" class="er attributeBoxOdd"/><text style="dominant-baseline: middle; font-size: 10.2px;" transform="translate(127.29682922363281,79)" y="0" x="0" id="text-entity-Inquilino-789030f2-d964-5544-af3f-566299f5c789-attr-3-key" class="er entityLabel"/><rect height="22" width="63.70890808105469" y="90" x="0" class="er attributeBoxEven"/><text style="dominant-baseline: middle; font-size: 10.2px;" transform="translate(5,101)" y="0" x="0" id="text-entity-Inquilino-789030f2-d964-5544-af3f-566299f5c789-attr-4-type" class="er entityLabel">varchar(50)</text><rect height="22" width="58.587921142578125" y="90" x="63.70890808105469" class="er attributeBoxEven"/><text style="dominant-baseline: middle; font-size: 10.2px;" transform="translate(68.70890808105469,101)" y="0" x="0" id="text-entity-Inquilino-789030f2-d964-5544-af3f-566299f5c789-attr-4-name" class="er entityLabel">DNI</text><rect height="22" width="22.68768310546875" y="90" x="122.29682922363281" class="er attributeBoxEven"/><text style="dominant-baseline: middle; font-size: 10.2px;" transform="translate(127.29682922363281,101)" y="0" x="0" id="text-entity-Inquilino-789030f2-d964-5544-af3f-566299f5c789-attr-4-key" class="er entityLabel"/><rect height="22" width="63.70890808105469" y="112" x="0" class="er attributeBoxOdd"/><text style="dominant-baseline: middle; font-size: 10.2px;" transform="translate(5,123)" y="0" x="0" id="text-entity-Inquilino-789030f2-d964-5544-af3f-566299f5c789-attr-5-type" class="er entityLabel">varchar(50)</text><rect height="22" width="58.587921142578125" y="112" x="63.70890808105469" class="er attributeBoxOdd"/><text style="dominant-baseline: middle; font-size: 10.2px;" transform="translate(68.70890808105469,123)" y="0" x="0" id="text-entity-Inquilino-789030f2-d964-5544-af3f-566299f5c789-attr-5-name" class="er entityLabel">Telefono</text><rect height="22" width="22.68768310546875" y="112" x="122.29682922363281" class="er attributeBoxOdd"/><text style="dominant-baseline: middle; font-size: 10.2px;" transform="translate(127.29682922363281,123)" y="0" x="0" id="text-entity-Inquilino-789030f2-d964-5544-af3f-566299f5c789-attr-5-key" class="er entityLabel"/><rect height="22" width="63.70890808105469" y="134" x="0" class="er attributeBoxEven"/><text style="dominant-baseline: middle; font-size: 10.2px;" transform="translate(5,145)" y="0" x="0" id="text-entity-Inquilino-789030f2-d964-5544-af3f-566299f5c789-attr-6-type" class="er entityLabel">varchar(50)</text><rect height="22" width="58.587921142578125" y="134" x="63.70890808105469" class="er attributeBoxEven"/><text style="dominant-baseline: middle; font-size: 10.2px;" transform="translate(68.70890808105469,145)" y="0" x="0" id="text-entity-Inquilino-789030f2-d964-5544-af3f-566299f5c789-attr-6-name" class="er entityLabel">Email</text><rect height="22" width="22.68768310546875" y="134" x="122.29682922363281" class="er attributeBoxEven"/><text style="dominant-baseline: middle; font-size: 10.2px;" transform="translate(127.29682922363281,145)" y="0" x="0" id="text-entity-Inquilino-789030f2-d964-5544-af3f-566299f5c789-attr-6-key" class="er entityLabel"/></g><g transform="translate(64.8521499633789,276 )" id="entity-Inmueble-61174a6b-0db2-5dec-b4c8-003bb53652ac"><rect height="178" width="166.29200744628906" y="0" x="0" class="er entityBox"/><text style="dominant-baseline: middle; text-anchor: middle; font-size: 12px;" transform="translate(83.14600372314453,12)" y="0" x="0" id="text-entity-Inmueble-61174a6b-0db2-5dec-b4c8-003bb53652ac" class="er entityLabel">Inmueble</text><rect height="22" width="63.70890808105469" y="24" x="0" class="er attributeBoxOdd"/><text style="dominant-baseline: middle; font-size: 10.2px;" transform="translate(5,35)" y="0" x="0" id="text-entity-Inmueble-61174a6b-0db2-5dec-b4c8-003bb53652ac-attr-1-type" class="er entityLabel">int(11)</text><rect height="22" width="79.89541625976562" y="24" x="63.70890808105469" class="er attributeBoxOdd"/><text style="dominant-baseline: middle; font-size: 10.2px;" transform="translate(68.70890808105469,35)" y="0" x="0" id="text-entity-Inmueble-61174a6b-0db2-5dec-b4c8-003bb53652ac-attr-1-name" class="er entityLabel">IdInmueble</text><rect height="22" width="22.68768310546875" y="24" x="143.6043243408203" class="er attributeBoxOdd"/><text style="dominant-baseline: middle; font-size: 10.2px;" transform="translate(148.6043243408203,35)" y="0" x="0" id="text-entity-Inmueble-61174a6b-0db2-5dec-b4c8-003bb53652ac-attr-1-key" class="er entityLabel">PK</text><rect height="22" width="63.70890808105469" y="46" x="0" class="er attributeBoxEven"/><text style="dominant-baseline: middle; font-size: 10.2px;" transform="translate(5,57)" y="0" x="0" id="text-entity-Inmueble-61174a6b-0db2-5dec-b4c8-003bb53652ac-attr-2-type" class="er entityLabel">varchar(50)</text><rect height="22" width="79.89541625976562" y="46" x="63.70890808105469" class="er attributeBoxEven"/><text style="dominant-baseline: middle; font-size: 10.2px;" transform="translate(68.70890808105469,57)" y="0" x="0" id="text-entity-Inmueble-61174a6b-0db2-5dec-b4c8-003bb53652ac-attr-2-name" class="er entityLabel">Direccion</text><rect height="22" width="22.68768310546875" y="46" x="143.6043243408203" class="er attributeBoxEven"/><text style="dominant-baseline: middle; font-size: 10.2px;" transform="translate(148.6043243408203,57)" y="0" x="0" id="text-entity-Inmueble-61174a6b-0db2-5dec-b4c8-003bb53652ac-attr-2-key" class="er entityLabel"/><rect height="22" width="63.70890808105469" y="68" x="0" class="er attributeBoxOdd"/><text style="dominant-baseline: middle; font-size: 10.2px;" transform="translate(5,79)" y="0" x="0" id="text-entity-Inmueble-61174a6b-0db2-5dec-b4c8-003bb53652ac-attr-3-type" class="er entityLabel">varchar(50)</text><rect height="22" width="79.89541625976562" y="68" x="63.70890808105469" class="er attributeBoxOdd"/><text style="dominant-baseline: middle; font-size: 10.2px;" transform="translate(68.70890808105469,79)" y="0" x="0" id="text-entity-Inmueble-61174a6b-0db2-5dec-b4c8-003bb53652ac-attr-3-name" class="er entityLabel">Uso</text><rect height="22" width="22.68768310546875" y="68" x="143.6043243408203" class="er attributeBoxOdd"/><text style="dominant-baseline: middle; font-size: 10.2px;" transform="translate(148.6043243408203,79)" y="0" x="0" id="text-entity-Inmueble-61174a6b-0db2-5dec-b4c8-003bb53652ac-attr-3-key" class="er entityLabel"/><rect height="22" width="63.70890808105469" y="90" x="0" class="er attributeBoxEven"/><text style="dominant-baseline: middle; font-size: 10.2px;" transform="translate(5,101)" y="0" x="0" id="text-entity-Inmueble-61174a6b-0db2-5dec-b4c8-003bb53652ac-attr-4-type" class="er entityLabel">varchar(50)</text><rect height="22" width="79.89541625976562" y="90" x="63.70890808105469" class="er attributeBoxEven"/><text style="dominant-baseline: middle; font-size: 10.2px;" transform="translate(68.70890808105469,101)" y="0" x="0" id="text-entity-Inmueble-61174a6b-0db2-5dec-b4c8-003bb53652ac-attr-4-name" class="er entityLabel">Tipo</text><rect height="22" width="22.68768310546875" y="90" x="143.6043243408203" class="er attributeBoxEven"/><text style="dominant-baseline: middle; font-size: 10.2px;" transform="translate(148.6043243408203,101)" y="0" x="0" id="text-entity-Inmueble-61174a6b-0db2-5dec-b4c8-003bb53652ac-attr-4-key" class="er entityLabel"/><rect height="22" width="63.70890808105469" y="112" x="0" class="er attributeBoxOdd"/><text style="dominant-baseline: middle; font-size: 10.2px;" transform="translate(5,123)" y="0" x="0" id="text-entity-Inmueble-61174a6b-0db2-5dec-b4c8-003bb53652ac-attr-5-type" class="er entityLabel">int(11)</text><rect height="22" width="79.89541625976562" y="112" x="63.70890808105469" class="er attributeBoxOdd"/><text style="dominant-baseline: middle; font-size: 10.2px;" transform="translate(68.70890808105469,123)" y="0" x="0" id="text-entity-Inmueble-61174a6b-0db2-5dec-b4c8-003bb53652ac-attr-5-name" class="er entityLabel">CantAmbientes</text><rect height="22" width="22.68768310546875" y="112" x="143.6043243408203" class="er attributeBoxOdd"/><text style="dominant-baseline: middle; font-size: 10.2px;" transform="translate(148.6043243408203,123)" y="0" x="0" id="text-entity-Inmueble-61174a6b-0db2-5dec-b4c8-003bb53652ac-attr-5-key" class="er entityLabel"/><rect height="22" width="63.70890808105469" y="134" x="0" class="er attributeBoxEven"/><text style="dominant-baseline: middle; font-size: 10.2px;" transform="translate(5,145)" y="0" x="0" id="text-entity-Inmueble-61174a6b-0db2-5dec-b4c8-003bb53652ac-attr-6-type" class="er entityLabel">varchar(50)</text><rect height="22" width="79.89541625976562" y="134" x="63.70890808105469" class="er attributeBoxEven"/><text style="dominant-baseline: middle; font-size: 10.2px;" transform="translate(68.70890808105469,145)" y="0" x="0" id="text-entity-Inmueble-61174a6b-0db2-5dec-b4c8-003bb53652ac-attr-6-name" class="er entityLabel">Coordenadas</text><rect height="22" width="22.68768310546875" y="134" x="143.6043243408203" class="er attributeBoxEven"/><text style="dominant-baseline: middle; font-size: 10.2px;" transform="translate(148.6043243408203,145)" y="0" x="0" id="text-entity-Inmueble-61174a6b-0db2-5dec-b4c8-003bb53652ac-attr-6-key" class="er entityLabel"/><rect height="22" width="63.70890808105469" y="156" x="0" class="er attributeBoxOdd"/><text style="dominant-baseline: middle; font-size: 10.2px;" transform="translate(5,167)" y="0" x="0" id="text-entity-Inmueble-61174a6b-0db2-5dec-b4c8-003bb53652ac-attr-7-type" class="er entityLabel">int(11)</text><rect height="22" width="79.89541625976562" y="156" x="63.70890808105469" class="er attributeBoxOdd"/><text style="dominant-baseline: middle; font-size: 10.2px;" transform="translate(68.70890808105469,167)" y="0" x="0" id="text-entity-Inmueble-61174a6b-0db2-5dec-b4c8-003bb53652ac-attr-7-name" class="er entityLabel">IdPropietario</text><rect height="22" width="22.68768310546875" y="156" x="143.6043243408203" class="er attributeBoxOdd"/><text style="dominant-baseline: middle; font-size: 10.2px;" transform="translate(148.6043243408203,167)" y="0" x="0" id="text-entity-Inmueble-61174a6b-0db2-5dec-b4c8-003bb53652ac-attr-7-key" class="er entityLabel">FK</text></g><g transform="translate(335.16890716552734,31 )" id="entity-Contrato-14747864-2ed2-5e88-9f54-a8b60f6aabd0"><rect height="134" width="136.9350128173828" y="0" x="0" class="er entityBox"/><text style="dominant-baseline: middle; text-anchor: middle; font-size: 12px;" transform="translate(68.4675064086914,12)" y="0" x="0" id="text-entity-Contrato-14747864-2ed2-5e88-9f54-a8b60f6aabd0" class="er entityLabel">Contrato</text><rect height="22" width="52.06849670410156" y="24" x="0" class="er attributeBoxOdd"/><text style="dominant-baseline: middle; font-size: 10.2px;" transform="translate(5,35)" y="0" x="0" id="text-entity-Contrato-14747864-2ed2-5e88-9f54-a8b60f6aabd0-attr-1-type" class="er entityLabel">int(11)</text><rect height="22" width="62.1788330078125" y="24" x="52.06849670410156" class="er attributeBoxOdd"/><text style="dominant-baseline: middle; font-size: 10.2px;" transform="translate(57.06849670410156,35)" y="0" x="0" id="text-entity-Contrato-14747864-2ed2-5e88-9f54-a8b60f6aabd0-attr-1-name" class="er entityLabel">IdContrato</text><rect height="22" width="22.68768310546875" y="24" x="114.24732971191406" class="er attributeBoxOdd"/><text style="dominant-baseline: middle; font-size: 10.2px;" transform="translate(119.24732971191406,35)" y="0" x="0" id="text-entity-Contrato-14747864-2ed2-5e88-9f54-a8b60f6aabd0-attr-1-key" class="er entityLabel">PK</text><rect height="22" width="52.06849670410156" y="46" x="0" class="er attributeBoxEven"/><text style="dominant-baseline: middle; font-size: 10.2px;" transform="translate(5,57)" y="0" x="0" id="text-entity-Contrato-14747864-2ed2-5e88-9f54-a8b60f6aabd0-attr-2-type" class="er entityLabel">int(11)</text><rect height="22" width="62.1788330078125" y="46" x="52.06849670410156" class="er attributeBoxEven"/><text style="dominant-baseline: middle; font-size: 10.2px;" transform="translate(57.06849670410156,57)" y="0" x="0" id="text-entity-Contrato-14747864-2ed2-5e88-9f54-a8b60f6aabd0-attr-2-name" class="er entityLabel">IdInquilino</text><rect height="22" width="22.68768310546875" y="46" x="114.24732971191406" class="er attributeBoxEven"/><text style="dominant-baseline: middle; font-size: 10.2px;" transform="translate(119.24732971191406,57)" y="0" x="0" id="text-entity-Contrato-14747864-2ed2-5e88-9f54-a8b60f6aabd0-attr-2-key" class="er entityLabel">FK</text><rect height="22" width="52.06849670410156" y="68" x="0" class="er attributeBoxOdd"/><text style="dominant-baseline: middle; font-size: 10.2px;" transform="translate(5,79)" y="0" x="0" id="text-entity-Contrato-14747864-2ed2-5e88-9f54-a8b60f6aabd0-attr-3-type" class="er entityLabel">int(11)</text><rect height="22" width="62.1788330078125" y="68" x="52.06849670410156" class="er attributeBoxOdd"/><text style="dominant-baseline: middle; font-size: 10.2px;" transform="translate(57.06849670410156,79)" y="0" x="0" id="text-entity-Contrato-14747864-2ed2-5e88-9f54-a8b60f6aabd0-attr-3-name" class="er entityLabel">IdInmueble</text><rect height="22" width="22.68768310546875" y="68" x="114.24732971191406" class="er attributeBoxOdd"/><text style="dominant-baseline: middle; font-size: 10.2px;" transform="translate(119.24732971191406,79)" y="0" x="0" id="text-entity-Contrato-14747864-2ed2-5e88-9f54-a8b60f6aabd0-attr-3-key" class="er entityLabel">FK</text><rect height="22" width="52.06849670410156" y="90" x="0" class="er attributeBoxEven"/><text style="dominant-baseline: middle; font-size: 10.2px;" transform="translate(5,101)" y="0" x="0" id="text-entity-Contrato-14747864-2ed2-5e88-9f54-a8b60f6aabd0-attr-4-type" class="er entityLabel">datetime</text><rect height="22" width="62.1788330078125" y="90" x="52.06849670410156" class="er attributeBoxEven"/><text style="dominant-baseline: middle; font-size: 10.2px;" transform="translate(57.06849670410156,101)" y="0" x="0" id="text-entity-Contrato-14747864-2ed2-5e88-9f54-a8b60f6aabd0-attr-4-name" class="er entityLabel">FechaInicio</text><rect height="22" width="22.68768310546875" y="90" x="114.24732971191406" class="er attributeBoxEven"/><text style="dominant-baseline: middle; font-size: 10.2px;" transform="translate(119.24732971191406,101)" y="0" x="0" id="text-entity-Contrato-14747864-2ed2-5e88-9f54-a8b60f6aabd0-attr-4-key" class="er entityLabel"/><rect height="22" width="52.06849670410156" y="112" x="0" class="er attributeBoxOdd"/><text style="dominant-baseline: middle; font-size: 10.2px;" transform="translate(5,123)" y="0" x="0" id="text-entity-Contrato-14747864-2ed2-5e88-9f54-a8b60f6aabd0-attr-5-type" class="er entityLabel">datetime</text><rect height="22" width="62.1788330078125" y="112" x="52.06849670410156" class="er attributeBoxOdd"/><text style="dominant-baseline: middle; font-size: 10.2px;" transform="translate(57.06849670410156,123)" y="0" x="0" id="text-entity-Contrato-14747864-2ed2-5e88-9f54-a8b60f6aabd0-attr-5-name" class="er entityLabel">FechaFin</text><rect height="22" width="22.68768310546875" y="112" x="114.24732971191406" class="er attributeBoxOdd"/><text style="dominant-baseline: middle; font-size: 10.2px;" transform="translate(119.24732971191406,123)" y="0" x="0" id="text-entity-Contrato-14747864-2ed2-5e88-9f54-a8b60f6aabd0-attr-5-key" class="er entityLabel"/></g><g transform="translate(576.1286697387695,309 )" id="entity-Pago-ec97a782-15de-5253-a013-3d64c83f934c"><rect height="112" width="133.83717346191406" y="0" x="0" class="er entityBox"/><text style="dominant-baseline: middle; text-anchor: middle; font-size: 12px;" transform="translate(66.91858673095703,12)" y="0" x="0" id="text-entity-Pago-ec97a782-15de-5253-a013-3d64c83f934c" class="er entityLabel">Pago</text><rect height="22" width="52.06849670410156" y="24" x="0" class="er attributeBoxOdd"/><text style="dominant-baseline: middle; font-size: 10.2px;" transform="translate(5,35)" y="0" x="0" id="text-entity-Pago-ec97a782-15de-5253-a013-3d64c83f934c-attr-1-type" class="er entityLabel">int(11)</text><rect height="22" width="59.08099365234375" y="24" x="52.06849670410156" class="er attributeBoxOdd"/><text style="dominant-baseline: middle; font-size: 10.2px;" transform="translate(57.06849670410156,35)" y="0" x="0" id="text-entity-Pago-ec97a782-15de-5253-a013-3d64c83f934c-attr-1-name" class="er entityLabel">NroPago</text><rect height="22" width="22.68768310546875" y="24" x="111.14949035644531" class="er attributeBoxOdd"/><text style="dominant-baseline: middle; font-size: 10.2px;" transform="translate(116.14949035644531,35)" y="0" x="0" id="text-entity-Pago-ec97a782-15de-5253-a013-3d64c83f934c-attr-1-key" class="er entityLabel">PK</text><rect height="22" width="52.06849670410156" y="46" x="0" class="er attributeBoxEven"/><text style="dominant-baseline: middle; font-size: 10.2px;" transform="translate(5,57)" y="0" x="0" id="text-entity-Pago-ec97a782-15de-5253-a013-3d64c83f934c-attr-2-type" class="er entityLabel">datetime</text><rect height="22" width="59.08099365234375" y="46" x="52.06849670410156" class="er attributeBoxEven"/><text style="dominant-baseline: middle; font-size: 10.2px;" transform="translate(57.06849670410156,57)" y="0" x="0" id="text-entity-Pago-ec97a782-15de-5253-a013-3d64c83f934c-attr-2-name" class="er entityLabel">FechaPago</text><rect height="22" width="22.68768310546875" y="46" x="111.14949035644531" class="er attributeBoxEven"/><text style="dominant-baseline: middle; font-size: 10.2px;" transform="translate(116.14949035644531,57)" y="0" x="0" id="text-entity-Pago-ec97a782-15de-5253-a013-3d64c83f934c-attr-2-key" class="er entityLabel"/><rect height="22" width="52.06849670410156" y="68" x="0" class="er attributeBoxOdd"/><text style="dominant-baseline: middle; font-size: 10.2px;" transform="translate(5,79)" y="0" x="0" id="text-entity-Pago-ec97a782-15de-5253-a013-3d64c83f934c-attr-3-type" class="er entityLabel">int(11)</text><rect height="22" width="59.08099365234375" y="68" x="52.06849670410156" class="er attributeBoxOdd"/><text style="dominant-baseline: middle; font-size: 10.2px;" transform="translate(57.06849670410156,79)" y="0" x="0" id="text-entity-Pago-ec97a782-15de-5253-a013-3d64c83f934c-attr-3-name" class="er entityLabel">Importe</text><rect height="22" width="22.68768310546875" y="68" x="111.14949035644531" class="er attributeBoxOdd"/><text style="dominant-baseline: middle; font-size: 10.2px;" transform="translate(116.14949035644531,79)" y="0" x="0" id="text-entity-Pago-ec97a782-15de-5253-a013-3d64c83f934c-attr-3-key" class="er entityLabel"/><rect height="22" width="52.06849670410156" y="90" x="0" class="er attributeBoxEven"/><text style="dominant-baseline: middle; font-size: 10.2px;" transform="translate(5,101)" y="0" x="0" id="text-entity-Pago-ec97a782-15de-5253-a013-3d64c83f934c-attr-4-type" class="er entityLabel">int(11)</text><rect height="22" width="59.08099365234375" y="90" x="52.06849670410156" class="er attributeBoxEven"/><text style="dominant-baseline: middle; font-size: 10.2px;" transform="translate(57.06849670410156,101)" y="0" x="0" id="text-entity-Pago-ec97a782-15de-5253-a013-3d64c83f934c-attr-4-name" class="er entityLabel">IdContrato</text><rect height="22" width="22.68768310546875" y="90" x="111.14949035644531" class="er attributeBoxEven"/><text style="dominant-baseline: middle; font-size: 10.2px;" transform="translate(116.14949035644531,101)" y="0" x="0" id="text-entity-Pago-ec97a782-15de-5253-a013-3d64c83f934c-attr-4-key" class="er entityLabel">FK</text></g><rect height="14" width="69.8125" y="220.03286743164062" x="66.27919006347656" class="er relationshipLabelBox"/><text style="text-anchor: middle; dominant-baseline: middle; font-size: 12px;" y="227.03286743164062" x="101.18544006347656" id="rel42" class="er relationshipLabel">PropietarioId</text><rect height="14" width="56.857421875" y="219" x="375.20770263671875" class="er relationshipLabelBox"/><text style="text-anchor: middle; dominant-baseline: middle; font-size: 12px;" y="226" x="403.63641357421875" id="rel43" class="er relationshipLabel">InquilinoId</text><rect height="14" width="60.068359375" y="197.18458557128906" x="228.95098876953125" class="er relationshipLabelBox"/><text style="text-anchor: middle; dominant-baseline: middle; font-size: 12px;" y="204.18458557128906" x="258.98516845703125" id="rel44" class="er relationshipLabel">InmuebleId</text><rect height="14" width="57.4375" y="193.1084442138672" x="556.2968139648438" class="er relationshipLabelBox"/><text style="text-anchor: middle; dominant-baseline: middle; font-size: 12px;" y="200.1084442138672" x="585.0155639648438" id="rel45" class="er relationshipLabel">ContratoId</text></svg>